<svg width="17" height="10" viewBox="0 0 17 10" fill="none" xmlns="http://www.w3.org/2000/svg">
<path d="M16.0567 0.667788C16.1696 0.283117 16.0567 0 15.5138 0H13.7171C13.2596 0 13.0491 0.243112 12.9363 0.513919C12.9363 0.513919 12.0212 2.76347 10.7279 4.22214C10.31 4.64374 10.1178 4.77914 9.88903 4.77914C9.77617 4.77914 9.6023 4.64374 9.6023 4.25907V0.667788C9.6023 0.206183 9.47419 0 9.09595 0H6.27139C5.98466 0 5.81385 0.215415 5.81385 0.415444C5.81385 0.85243 6.46051 0.953982 6.52761 2.18493V4.85608C6.52761 5.44078 6.4239 5.54848 6.19513 5.54848C5.58507 5.54848 4.10264 3.2897 3.22415 0.704716C3.04724 0.203106 2.87337 0 2.41278 0H0.616158C0.10371 0 1.16359e-08 0.243112 1.16359e-08 0.513919C1.16359e-08 0.993988 0.610057 3.37894 2.83982 6.53016C4.32531 8.68124 6.4178 9.84756 8.32118 9.84756C9.46504 9.84756 9.60535 9.58906 9.60535 9.14285C9.60535 7.08717 9.50164 6.89329 10.0751 6.89329C10.3405 6.89329 10.798 7.0287 11.8656 8.06577C13.0857 9.29671 13.287 9.84756 13.9703 9.84756H15.7669C16.2794 9.84756 16.5387 9.58906 16.3892 9.07822C16.0476 8.00422 13.7385 5.79467 13.6348 5.64696C13.3694 5.3023 13.4457 5.14843 13.6348 4.84069C13.6378 4.83761 15.831 1.72332 16.0567 0.667788Z" fill="#151515" fill-opacity="0.8"/>
</svg>
