<svg width="32" height="34" viewBox="0 0 32 34" fill="none" xmlns="http://www.w3.org/2000/svg">
<path d="M15.9419 8.28283C11.4191 8.28283 7.77094 12.1748 7.77094 17C7.77094 21.8252 11.4191 25.7172 15.9419 25.7172C20.4647 25.7172 24.1129 21.8252 24.1129 17C24.1129 12.1748 20.4647 8.28283 15.9419 8.28283ZM15.9419 22.6673C13.0191 22.6673 10.6297 20.1257 10.6297 17C10.6297 13.8743 13.012 11.3327 15.9419 11.3327C18.8718 11.3327 21.2541 13.8743 21.2541 17C21.2541 20.1257 18.8647 22.6673 15.9419 22.6673ZM26.3529 7.92625C26.3529 9.05668 25.4996 9.9595 24.4471 9.9595C23.3875 9.9595 22.5412 9.04909 22.5412 7.92625C22.5412 6.80341 23.3946 5.893 24.4471 5.893C25.4996 5.893 26.3529 6.80341 26.3529 7.92625ZM31.7647 9.98985C31.6438 7.26621 31.0607 4.85362 29.1904 2.86589C27.3272 0.878166 25.0658 0.256053 22.5128 0.119491C19.8816 -0.0398303 11.9951 -0.0398303 9.36389 0.119491C6.81802 0.248466 4.55661 0.870579 2.68632 2.85831C0.816029 4.84603 0.240008 7.25862 0.112004 9.98226C-0.0373346 12.7894 -0.0373346 21.2031 0.112004 24.0102C0.232897 26.7338 0.816029 29.1464 2.68632 31.1341C4.55661 33.1218 6.81091 33.7439 9.36389 33.8805C11.9951 34.0398 19.8816 34.0398 22.5128 33.8805C25.0658 33.7515 27.3272 33.1294 29.1904 31.1341C31.0535 29.1464 31.6367 26.7338 31.7647 24.0102C31.914 21.2031 31.914 12.7969 31.7647 9.98985ZM28.3654 27.0221C27.8108 28.5091 26.7369 29.6547 25.336 30.254C23.2382 31.1417 18.2602 30.9369 15.9419 30.9369C13.6236 30.9369 8.63853 31.1341 6.54779 30.254C5.15396 29.6623 4.08014 28.5167 3.51835 27.0221C2.68632 24.784 2.87832 19.4733 2.87832 17C2.87832 14.5267 2.69343 9.20841 3.51835 6.97791C4.07303 5.49091 5.14685 4.34531 6.54779 3.74596C8.64564 2.85831 13.6236 3.06315 15.9419 3.06315C18.2602 3.06315 23.2453 2.86589 25.336 3.74596C26.7298 4.33772 27.8036 5.48332 28.3654 6.97791C29.1975 9.216 29.0055 14.5267 29.0055 17C29.0055 19.4733 29.1975 24.7916 28.3654 27.0221Z" fill="#2C00DA" fill-opacity="0.8"/>
</svg>
