<svg width="17" height="17" viewBox="0 0 17 17" fill="none" xmlns="http://www.w3.org/2000/svg">
<path d="M8.0973 4.0404C5.80004 4.0404 3.94706 5.93894 3.94706 8.29268C3.94706 10.6464 5.80004 12.545 8.0973 12.545C10.3946 12.545 12.2475 10.6464 12.2475 8.29268C12.2475 5.93894 10.3946 4.0404 8.0973 4.0404ZM8.0973 11.0572C6.61275 11.0572 5.3991 9.81743 5.3991 8.29268C5.3991 6.76793 6.60914 5.52815 8.0973 5.52815C9.58546 5.52815 10.7955 6.76793 10.7955 8.29268C10.7955 9.81743 9.58185 11.0572 8.0973 11.0572ZM13.3853 3.86646C13.3853 4.41789 12.9519 4.85829 12.4173 4.85829C11.8791 4.85829 11.4493 4.41419 11.4493 3.86646C11.4493 3.31874 11.8827 2.87464 12.4173 2.87464C12.9519 2.87464 13.3853 3.31874 13.3853 3.86646ZM16.1341 4.8731C16.0727 3.54449 15.7765 2.36762 14.8265 1.398C13.8802 0.428373 12.7316 0.124904 11.4348 0.0582885C10.0984 -0.0194294 6.09261 -0.0194294 4.75616 0.0582885C3.46305 0.121203 2.31442 0.424673 1.36445 1.3943C0.414482 2.36392 0.121906 3.54079 0.0568897 4.86939C-0.0189632 6.23871 -0.0189632 10.343 0.0568897 11.7123C0.118294 13.0409 0.414482 14.2177 1.36445 15.1874C2.31442 16.157 3.45943 16.4605 4.75616 16.5271C6.09261 16.6048 10.0984 16.6048 11.4348 16.5271C12.7316 16.4642 13.8802 16.1607 14.8265 15.1874C15.7729 14.2177 16.0691 13.0409 16.1341 11.7123C16.2099 10.343 16.2099 6.24241 16.1341 4.8731ZM14.4075 13.1815C14.1258 13.9069 13.5804 14.4657 12.8688 14.7581C11.8033 15.1911 9.27482 15.0911 8.0973 15.0911C6.91977 15.0911 4.38773 15.1874 3.32579 14.7581C2.61783 14.4694 2.07241 13.9106 1.78706 13.1815C1.36445 12.0898 1.46197 9.49916 1.46197 8.29268C1.46197 7.08621 1.36806 4.49191 1.78706 3.40386C2.0688 2.67849 2.61422 2.11966 3.32579 1.8273C4.39134 1.3943 6.91977 1.49422 8.0973 1.49422C9.27482 1.49422 11.8069 1.398 12.8688 1.8273C13.5768 2.11596 14.1222 2.67479 14.4075 3.40386C14.8301 4.49561 14.7326 7.08621 14.7326 8.29268C14.7326 9.49916 14.8301 12.0935 14.4075 13.1815Z" transform="translate(0.809082)" fill="#151515" fill-opacity="0.8"/>
</svg>
