<svg width="33" height="21" viewBox="0 0 33 21" fill="none" xmlns="http://www.w3.org/2000/svg">
<path d="M31.6123 1.36896C31.8345 0.58039 31.6123 0 30.5434 0H27.0062C26.1054 0 25.691 0.498379 25.4688 1.05353C25.4688 1.05353 23.6672 5.66512 21.1209 8.65539C20.2982 9.51967 19.9198 9.79725 19.4694 9.79725C19.2472 9.79725 18.9049 9.51967 18.9049 8.73109V1.36896C18.9049 0.422676 18.6527 0 17.908 0H12.3471C11.7826 0 11.4463 0.441602 11.4463 0.85166C11.4463 1.74748 12.7194 1.95566 12.8515 4.4791V9.95496C12.8515 11.1536 12.6473 11.3744 12.1969 11.3744C10.9959 11.3744 8.07724 6.74389 6.34769 1.44467C5.99937 0.416367 5.65707 0 4.75026 0H1.21309C0.204183 0 2.29087e-08 0.498379 2.29087e-08 1.05353C2.29087e-08 2.03768 1.20108 6.92684 5.59101 13.3868C8.51563 17.7965 12.6353 20.1875 16.3827 20.1875C18.6347 20.1875 18.9109 19.6576 18.9109 18.7428C18.9109 14.5287 18.7068 14.1312 19.8358 14.1312C20.3582 14.1312 21.259 14.4088 23.3609 16.5348C25.7631 19.0583 26.1594 20.1875 27.5046 20.1875H31.0418C32.0507 20.1875 32.5612 19.6576 32.2669 18.6103C31.5943 16.4086 27.0482 11.8791 26.844 11.5763C26.3216 10.8697 26.4717 10.5543 26.844 9.92342C26.8501 9.91711 31.1679 3.53281 31.6123 1.36896Z" transform="translate(0.650391 0.333252)" fill="#2C00DA" fill-opacity="0.8"/>
</svg>
